<svg width="539.640625px" height="336px" class="sequence simple" xmlns="http://www.w3.org/2000/svg" xmlns:xlink="http://www.w3.org/1999/xlink"><desc></desc><defs><marker viewBox="0 0 5 5" markerWidth="5" markerHeight="5" orient="auto" refX="5" refY="2.5" id="markerArrowBlock"><path d="M 0 0 L 5 2.5 L 0 5 z"></path></marker><marker viewBox="0 0 9.6 16" markerWidth="4" markerHeight="16" orient="auto" refX="9.6" refY="8" id="markerArrowOpen"><path d="M 9.6,8 1.92,16 0,13.7 5.76,8 0,2.286 1.92,0 9.6,8 z"></path></marker></defs><g class="title"></g><g class="actor"><rect x="67.4140625" y="20" width="29.59375" height="38" stroke="#000000" fill="#ffffff" style="stroke-width: 2;"></rect><text x="77.4140625" y="44.5" style="font-size: 16px; font-family: &quot;Andale Mono&quot;, monospace;"><tspan x="77.4140625">A</tspan></text></g><g class="actor"><rect x="67.4140625" y="278" width="29.59375" height="38" stroke="#000000" fill="#ffffff" style="stroke-width: 2;"></rect><text x="77.4140625" y="302.5" style="font-size: 16px; font-family: &quot;Andale Mono&quot;, monospace;"><tspan x="77.4140625">A</tspan></text></g><line x1="82.2109375" x2="82.2109375" y1="58" y2="278" stroke="#000000" fill="none" style="stroke-width: 2;"></line><g class="actor"><rect x="149.625" y="20" width="29.59375" height="38" stroke="#000000" fill="#ffffff" style="stroke-width: 2;"></rect><text x="159.625" y="44.5" style="font-size: 16px; font-family: &quot;Andale Mono&quot;, monospace;"><tspan x="159.625">B</tspan></text></g><g class="actor"><rect x="149.625" y="278" width="29.59375" height="38" stroke="#000000" fill="#ffffff" style="stroke-width: 2;"></rect><text x="159.625" y="302.5" style="font-size: 16px; font-family: &quot;Andale Mono&quot;, monospace;"><tspan x="159.625">B</tspan></text></g><line x1="164.421875" x2="164.421875" y1="58" y2="278" stroke="#000000" fill="none" style="stroke-width: 2;"></line><g class="actor"><rect x="199.21875" y="20" width="29.59375" height="38" stroke="#000000" fill="#ffffff" style="stroke-width: 2;"></rect><text x="209.21875" y="44.5" style="font-size: 16px; font-family: &quot;Andale Mono&quot;, monospace;"><tspan x="209.21875">C</tspan></text></g><g class="actor"><rect x="199.21875" y="278" width="29.59375" height="38" stroke="#000000" fill="#ffffff" style="stroke-width: 2;"></rect><text x="209.21875" y="302.5" style="font-size: 16px; font-family: &quot;Andale Mono&quot;, monospace;"><tspan x="209.21875">C</tspan></text></g><line x1="214.015625" x2="214.015625" y1="58" y2="278" stroke="#000000" fill="none" style="stroke-width: 2;"></line><g class="actor"><rect x="324.828125" y="20" width="29.59375" height="38" stroke="#000000" fill="#ffffff" style="stroke-width: 2;"></rect><text x="334.828125" y="44.5" style="font-size: 16px; font-family: &quot;Andale Mono&quot;, monospace;"><tspan x="334.828125">D</tspan></text></g><g class="actor"><rect x="324.828125" y="278" width="29.59375" height="38" stroke="#000000" fill="#ffffff" style="stroke-width: 2;"></rect><text x="334.828125" y="302.5" style="font-size: 16px; font-family: &quot;Andale Mono&quot;, monospace;"><tspan x="334.828125">D</tspan></text></g><line x1="339.625" x2="339.625" y1="58" y2="278" stroke="#000000" fill="none" style="stroke-width: 2;"></line><g class="actor"><rect x="421.640625" y="20" width="29.59375" height="38" stroke="#000000" fill="#ffffff" style="stroke-width: 2;"></rect><text x="431.640625" y="44.5" style="font-size: 16px; font-family: &quot;Andale Mono&quot;, monospace;"><tspan x="431.640625">E</tspan></text></g><g class="actor"><rect x="421.640625" y="278" width="29.59375" height="38" stroke="#000000" fill="#ffffff" style="stroke-width: 2;"></rect><text x="431.640625" y="302.5" style="font-size: 16px; font-family: &quot;Andale Mono&quot;, monospace;"><tspan x="431.640625">E</tspan></text></g><line x1="436.4375" x2="436.4375" y1="58" y2="278" stroke="#000000" fill="none" style="stroke-width: 2;"></line><g class="actor"><rect x="480.046875" y="20" width="29.59375" height="38" stroke="#000000" fill="#ffffff" style="stroke-width: 2;"></rect><text x="490.046875" y="44.5" style="font-size: 16px; font-family: &quot;Andale Mono&quot;, monospace;"><tspan x="490.046875">F</tspan></text></g><g class="actor"><rect x="480.046875" y="278" width="29.59375" height="38" stroke="#000000" fill="#ffffff" style="stroke-width: 2;"></rect><text x="490.046875" y="302.5" style="font-size: 16px; font-family: &quot;Andale Mono&quot;, monospace;"><tspan x="490.046875">F</tspan></text></g><line x1="494.84375" x2="494.84375" y1="58" y2="278" stroke="#000000" fill="none" style="stroke-width: 2;"></line><g class="signal"><text x="104.11328125" y="88.5" style="font-size: 16px; font-family: &quot;Andale Mono&quot;, monospace;"><tspan x="104.11328125">Hey!</tspan></text><line x1="82.2109375" x2="164.421875" y1="96" y2="96" stroke="#000000" fill="none" style="stroke-width: 2; marker-end: url(&quot;#markerArrowBlock&quot;);"></line></g><g class="note"><rect x="10" y="116" width="144.421875" height="28" stroke="#000000" fill="#ffffff" style="stroke-width: 2;"></rect><text x="15" y="135.5" style="font-size: 16px; font-family: &quot;Andale Mono&quot;, monospace;"><tspan x="15">this is a note</tspan></text></g><g class="signal"><text x="224.015625" y="174.5" style="font-size: 16px; font-family: &quot;Andale Mono&quot;, monospace;"><tspan x="224.015625">How are you</tspan></text><line x1="214.015625" x2="339.625" y1="182" y2="182" stroke="#000000" fill="none" style="stroke-width: 2; marker-end: url(&quot;#markerArrowBlock&quot;);"></line></g><g class="signal"><text x="349.625" y="212.5" style="font-size: 16px; font-family: &quot;Andale Mono&quot;, monospace;"><tspan x="349.625">Good day</tspan></text><line x1="339.625" x2="436.4375" y1="220" y2="220" stroke="#000000" fill="none" style="stroke-width: 2; stroke-dasharray: 6, 2; marker-end: url(&quot;#markerArrowBlock&quot;);"></line></g><g class="signal"><text x="446.4375" y="250.5" style="font-size: 16px; font-family: &quot;Andale Mono&quot;, monospace;"><tspan x="446.4375">HAHA</tspan></text><line x1="436.4375" x2="494.84375" y1="258" y2="258" stroke="#000000" fill="none" style="stroke-width: 2; marker-end: url(&quot;#markerArrowOpen&quot;);"></line></g></svg>