<svg width="137.59375px" height="174px" class="sequence simple" xmlns="http://www.w3.org/2000/svg" xmlns:xlink="http://www.w3.org/1999/xlink"><desc></desc><defs><marker viewBox="0 0 5 5" markerWidth="5" markerHeight="5" orient="auto" refX="5" refY="2.5" id="markerArrowBlock"><path d="M 0 0 L 5 2.5 L 0 5 z"></path></marker><marker viewBox="0 0 9.6 16" markerWidth="4" markerHeight="16" orient="auto" refX="9.6" refY="8" id="markerArrowOpen"><path d="M 9.6,8 1.92,16 0,13.7 5.76,8 0,2.286 1.92,0 9.6,8 z"></path></marker></defs><g class="title"></g><g class="actor"><rect x="10" y="20" width="29.59375" height="38" stroke="#000000" fill="#ffffff" style="stroke-width: 2;"></rect><text x="20" y="44.5" style="font-size: 16px; font-family: &quot;Andale Mono&quot;, monospace;"><tspan x="20">A</tspan></text></g><g class="actor"><rect x="10" y="116" width="29.59375" height="38" stroke="#000000" fill="#ffffff" style="stroke-width: 2;"></rect><text x="20" y="140.5" style="font-size: 16px; font-family: &quot;Andale Mono&quot;, monospace;"><tspan x="20">A</tspan></text></g><line x1="24.796875" x2="24.796875" y1="58" y2="116" stroke="#000000" fill="none" style="stroke-width: 2;"></line><g class="actor"><rect x="78" y="20" width="29.59375" height="38" stroke="#000000" fill="#ffffff" style="stroke-width: 2;"></rect><text x="88" y="44.5" style="font-size: 16px; font-family: &quot;Andale Mono&quot;, monospace;"><tspan x="88">B</tspan></text></g><g class="actor"><rect x="78" y="116" width="29.59375" height="38" stroke="#000000" fill="#ffffff" style="stroke-width: 2;"></rect><text x="88" y="140.5" style="font-size: 16px; font-family: &quot;Andale Mono&quot;, monospace;"><tspan x="88">B</tspan></text></g><line x1="92.796875" x2="92.796875" y1="58" y2="116" stroke="#000000" fill="none" style="stroke-width: 2;"></line><g class="signal"><text x="34.796875" y="88.5" style="font-size: 16px; font-family: &quot;Andale Mono&quot;, monospace;"><tspan x="34.796875">hello</tspan></text><line x1="24.796875" x2="92.796875" y1="96" y2="96" stroke="#000000" fill="none" style="stroke-width: 2; marker-end: url(&quot;#markerArrowBlock&quot;);"></line></g></svg>